<?xml version="1.0" encoding="UTF-8"?>
<svg width="203px" height="58px" viewBox="0 0 203 58" version="1.1" xmlns="http://www.w3.org/2000/svg" xmlns:xlink="http://www.w3.org/1999/xlink">
    <title>logo</title>
    <defs>
        <path d="M23.7579079,0.349288889 C10.4357105,0.349288889 0,11.1843333 0,25.0173333 L0,25.0173333 L0,30.2708444 C0,45.2052 12.1552237,57.3555556 27.097,57.3555556 L27.097,57.3555556 L38.1845395,57.3555556 C39.6087632,57.3555556 40.7634868,56.2013556 40.7634868,54.7777778 L40.7634868,54.7777778 C40.7634868,53.3542 39.6087632,52.2 38.1845395,52.2 L38.1845395,52.2 L27.097,52.2 C14.9998026,52.2 5.15789474,42.3625556 5.15789474,30.2708444 L5.15789474,30.2708444 L5.15789474,25.0173333 C5.15789474,13.8935778 13.1545658,5.50484444 23.7585526,5.50484444 L23.7585526,5.50484444 C34.5224342,5.50484444 43.27925,14.2583333 43.27925,25.0173333 L43.27925,25.0173333 L43.27925,31.1537333 C43.27925,36.8448222 38.6468158,41.4751556 32.9525,41.4751556 L32.9525,41.4751556 L29.7700789,41.4751556 C23.4896974,41.4751556 18.3801579,36.3685778 18.3801579,30.0904 L18.3801579,30.0904 L18.3801579,22.0470889 C18.3801579,20.4591778 19.6728553,19.1664222 21.2621316,19.1664222 L21.2621316,19.1664222 C22.8507632,19.1664222 24.1434605,20.4591778 24.1434605,22.0470889 L24.1434605,22.0470889 L24.1434605,26.4415556 C24.1434605,31.3064667 28.1040789,35.2659333 32.9711974,35.2659333 L32.9711974,35.2659333 L36.3431711,35.2659333 C37.76675,35.2659333 38.9214737,34.1117333 38.9214737,32.6875111 L38.9214737,32.6875111 C38.9214737,31.2645778 37.76675,30.1103778 36.3431711,30.1103778 L36.3431711,30.1103778 L32.9711974,30.1103778 C30.9480132,30.1103778 29.3013553,28.4638222 29.3013553,26.4415556 L29.3013553,26.4415556 L29.3013553,22.0470889 C29.3013553,17.6158889 25.6953421,14.0108667 21.2621316,14.0108667 L21.2621316,14.0108667 C16.8289211,14.0108667 13.2216184,17.6158889 13.2216184,22.0470889 L13.2216184,22.0470889 L13.2216184,30.0904 C13.2216184,39.2105778 20.6451184,46.6307111 29.7700789,46.6307111 L29.7700789,46.6307111 L32.9525,46.6307111 C41.49075,46.6307111 48.4371447,39.6874667 48.4371447,31.1537333 L48.4371447,31.1537333 L48.4371447,25.0173333 C48.4371447,11.4156889 37.3663684,0.349288889 23.7579079,0.349288889 Z" id="path-1"></path>
        <linearGradient x1="13.9021053%" y1="49.9999956%" x2="119.762215%" y2="103.645994%" id="linearGradient-3">
            <stop stop-color="#E2474F" offset="0%"></stop>
            <stop stop-color="#FECB90" offset="100%"></stop>
        </linearGradient>
    </defs>
    <g id="Design" stroke="none" stroke-width="1" fill="none" fill-rule="evenodd">
        <g id="logo">
            <g id="Group-15" transform="translate(70.000000, 19.000000)" fill="#1A0D39">
                <path d="M18.9047075,14.979375 C18.2048443,15.621875 17.0093255,16.268125 15.6083066,16.268125 C13.1087028,16.268125 11.4298066,14.570625 11.4298066,12.045625 C11.4298066,9.44875 13.0699292,7.77125 15.6083066,7.77125 C16.9789528,7.77125 18.2442642,8.41625 18.9047075,9.0525 L18.9047075,14.979375 Z M24.5081368,15.91375 C24.0331604,16.194375 23.6389623,16.32 23.2299009,16.32 C23.001783,16.32 22.5274528,16.32 22.5274528,15.200625 L22.5274528,4.83625 L18.9047075,4.83625 L18.9047075,5.7425 C17.8203396,5.003125 16.4264292,4.60375 14.8858255,4.60375 C10.7028019,4.60375 7.78056604,7.66375 7.78056604,12.045625 C7.78056604,12.9575 7.91627358,13.806875 8.15925472,14.586875 L6.04738679,15.904375 C5.57887264,16.15375 5.15688679,16.32 4.61987264,16.32 C4.19142453,16.32 3.62274528,16.1875 3.62274528,15.045 L3.62274528,3.01980663e-14 L2.13162821e-14,3.01980663e-14 L2.13162821e-14,15.66625 C2.13162821e-14,18.78125 1.95935849,19.435 3.60271226,19.435 C4.82149528,19.435 5.99310377,19.0775 6.62575943,18.771875 L9.40517925,17.020625 L9.39742453,16.93125 C10.6588585,18.485 12.5787972,19.409375 14.8858255,19.409375 C16.5343491,19.409375 18.1460377,18.814375 19.3273396,17.793125 C19.8191179,18.88375 20.7865189,19.435 22.2133868,19.435 C23.1995283,19.435 24.3381792,19.171875 25.1149434,18.765625 L25.3572783,18.63875 L25.0890943,15.570625 L24.5081368,15.91375 Z" id="Fill-1"></path>
                <path d="M34.5828915,4.6036875 C33.0655519,4.6036875 31.9359481,5.1474375 31.090684,6.3005625 C30.6079528,5.1855625 29.6127642,4.6036875 28.165217,4.6036875 C26.8953821,4.6036875 25.5596321,4.9999375 25.1544481,5.3555625 L25,5.4911875 L25.2643066,8.4449375 L25.8452642,8.0986875 C26.1392972,7.9230625 26.649816,7.7186875 27.1222075,7.7186875 C27.5067123,7.7186875 27.8246557,7.8030625 27.8246557,8.8380625 L27.8246557,19.1768125 L31.4467547,19.1768125 L31.439,11.1424375 C31.8958821,8.9305625 32.7676415,7.8999375 34.1822311,7.8999375 C35.3842123,7.8999375 36.0957075,8.2936875 36.2617877,8.5418125 L36.8194811,9.3749375 L37.5691038,5.8668125 L37.4825094,5.7293125 C37.1283774,5.1686875 36.0944151,4.6036875 34.5828915,4.6036875" id="Fill-3"></path>
                <path d="M63.692017,16.4440625 C62.2716113,16.4440625 61.0450736,15.7734375 60.3684745,15.1553125 L60.3684745,9.2871875 C61.0909557,8.6196875 62.3058613,7.9471875 63.692017,7.9471875 C66.2303943,7.9471875 67.8711632,9.6046875 67.8711632,12.1696875 C67.8711632,14.7265625 66.1916208,16.4440625 63.692017,16.4440625 M64.4409934,4.7796875 C62.8997434,4.7796875 61.4864462,5.1909375 60.3684745,5.9515625 L60.3684745,0.1759375 L56.7463755,0.1759375 L56.7463755,19.3528125 L60.3684745,19.3528125 L60.3684745,18.4015625 C61.2531585,19.0415625 62.5669368,19.6115625 64.4409934,19.6115625 C68.6401726,19.6115625 71.5733943,16.5509375 71.5733943,12.1696875 C71.5733943,7.8184375 68.6401726,4.7796875 64.4409934,4.7796875" id="Fill-5"></path>
                <path d="M83.8701745,10.573125 L76.8295377,10.573125 C77.1532972,9.1675 78.3081038,7.714375 80.6939717,7.714375 C82.6914575,7.714375 83.8837453,8.664375 83.8837453,10.255625 C83.8837453,10.355625 83.8785755,10.465 83.8701745,10.573125 L83.8701745,10.573125 Z M87.0851509,13.198125 C87.2583396,12.66875 87.399217,11.545625 87.399217,10.695625 C87.399217,7.773125 85.6518208,4.650625 80.7476085,4.650625 C76.2582736,4.650625 73,7.835 73,12.221875 C73,16.91375 75.9862123,19.715 80.9886509,19.715 C83.3247594,19.715 85.4799245,19.03 87.0573632,17.7875 L87.3287783,17.57375 L85.8314717,14.925 L85.4430896,15.206875 C84.8543774,15.633125 83.2504434,16.625625 81.068783,16.625625 C78.6493113,16.625625 77.1720377,15.54125 76.7694387,13.481875 L86.9927406,13.481875 L87.0851509,13.198125 Z" id="Fill-7"></path>
                <path d="M116.206778,10.573125 L109.166788,10.573125 C109.490547,9.1675 110.644708,7.714375 113.030575,7.714375 C115.028708,7.714375 116.220349,8.664375 116.220349,10.255625 C116.220349,10.355625 116.215179,10.465 116.206778,10.573125 L116.206778,10.573125 Z M119.422401,13.198125 C119.594943,12.66875 119.735821,11.545625 119.735821,10.695625 C119.735821,7.773125 117.988425,4.650625 113.084212,4.650625 C108.594877,4.650625 105.336604,7.835 105.336604,12.221875 C105.336604,13.114375 105.446462,13.9375 105.65584,14.6875 L103.657061,16.08125 C103.188547,16.33 102.765915,16.49625 102.228901,16.49625 C101.801099,16.49625 101.23242,16.36375 101.23242,15.22125 L101.23242,0.17625 L97.6096745,0.17625 L97.6096745,14.481875 L95.048033,16.08125 C94.5795189,16.33 94.1568868,16.49625 93.6198726,16.49625 C93.1920708,16.49625 92.6227453,16.36375 92.6227453,15.22125 L92.6227453,0.17625 L89,0.17625 L89,15.8425 C89,18.9575 90.9600047,19.61125 92.6033585,19.61125 C93.8214953,19.61125 94.9931038,19.25375 95.6257594,18.948125 L97.8675189,17.535625 C98.4497689,19.205 99.92575,19.61125 101.212387,19.61125 C102.430524,19.61125 103.602132,19.25375 104.235434,18.948125 L106.86816,17.083125 C108.225236,18.77625 110.436623,19.715 113.325255,19.715 C115.661363,19.715 117.816528,19.03 119.393967,17.7875 L119.665382,17.57375 L118.168075,14.925 L117.779693,15.206875 C117.190981,15.633125 115.587693,16.625625 113.405387,16.625625 C110.985915,16.625625 109.508642,15.54125 109.106042,13.481875 L119.329344,13.481875 L119.422401,13.198125 Z" id="Fill-9"></path>
                <path d="M129.197382,11.0513125 L126.305519,10.4031875 C124.843755,10.0638125 124.622745,9.8463125 124.622745,9.2731875 C124.622745,8.3031875 125.928769,7.8694375 127.22316,7.8694375 C128.743731,7.8694375 130.480788,8.3806875 131.527675,8.8869375 L131.972278,9.1013125 L132.973283,5.9563125 L132.649524,5.8038125 C131.580665,5.3000625 129.339552,4.7800625 127.437708,4.7800625 C123.586844,4.7800625 121,6.6688125 121,9.4800625 C121,11.6006875 122.206505,12.8769375 124.799811,13.4969375 L127.497807,14.1169375 C128.880731,14.4444375 129.370571,14.7331875 129.370571,15.2213125 C129.370571,16.4188125 127.6445,16.5475625 126.902632,16.5475625 C125.128094,16.5475625 123.500896,15.8981875 122.448193,15.3544375 L121.964816,15.1044375 L121.202915,18.2613125 L121.500179,18.4050625 C122.432038,18.8550625 124.386873,19.6113125 127.009259,19.6113125 C130.644283,19.6113125 132.99267,17.8169375 132.99267,15.0406875 C132.99267,12.9450625 131.786811,11.6769375 129.197382,11.0513125" id="Fill-11"></path>
                <path d="M48.8221533,15.155625 C48.1222901,15.798125 46.9267712,16.444375 45.5257524,16.444375 C43.0261486,16.444375 41.3466061,14.746875 41.3466061,12.221875 C41.3466061,9.625 42.987375,7.9475 45.5257524,7.9475 C46.8963986,7.9475 48.1610637,8.5925 48.8221533,9.22875 L48.8221533,15.155625 Z M54.4249363,16.09 C53.9499599,16.370625 53.556408,16.49625 53.1473467,16.49625 C52.9192288,16.49625 52.4448986,16.49625 52.4448986,15.376875 L52.4448986,5.0125 L48.8221533,5.0125 L48.8221533,5.91875 C47.7377854,5.179375 46.343875,4.78 44.8032712,4.78 C40.6196014,4.78 37.6980118,7.84 37.6980118,12.221875 C37.6980118,16.5575 40.6196014,19.585625 44.8032712,19.585625 C46.4517948,19.585625 48.0634835,18.990625 49.2447854,17.969375 C49.7365637,19.06 50.7039646,19.61125 52.1308325,19.61125 C53.1163278,19.61125 54.255625,19.348125 55.0323892,18.941875 L55.2747241,18.815 L55.0065401,15.746875 L54.4249363,16.09 Z" id="Fill-13"></path>
            </g>
            <g id="Group-18">
                <mask id="mask-2" fill="white">
                    <use xlink:href="#path-1"></use>
                </mask>
                <g id="Clip-17"></g>
                <path d="M23.7579079,0.349288889 C10.4357105,0.349288889 0,11.1843333 0,25.0173333 L0,30.2708444 C0,45.2052 12.1552237,57.3555556 27.097,57.3555556 L38.1845395,57.3555556 C39.6087632,57.3555556 40.7634868,56.2013556 40.7634868,54.7777778 C40.7634868,53.3542 39.6087632,52.2 38.1845395,52.2 L27.097,52.2 C14.9998026,52.2 5.15789474,42.3625556 5.15789474,30.2708444 L5.15789474,25.0173333 C5.15789474,13.8935778 13.1545658,5.50484444 23.7585526,5.50484444 C34.5224342,5.50484444 43.27925,14.2583333 43.27925,25.0173333 L43.27925,31.1537333 C43.27925,36.8448222 38.6468158,41.4751556 32.9525,41.4751556 L29.7700789,41.4751556 C23.4896974,41.4751556 18.3801579,36.3685778 18.3801579,30.0904 L18.3801579,22.0470889 C18.3801579,20.4591778 19.6728553,19.1664222 21.2621316,19.1664222 C22.8507632,19.1664222 24.1434605,20.4591778 24.1434605,22.0470889 L24.1434605,26.4415556 C24.1434605,31.3064667 28.1040789,35.2659333 32.9711974,35.2659333 L36.3431711,35.2659333 C37.76675,35.2659333 38.9214737,34.1117333 38.9214737,32.6875111 C38.9214737,31.2645778 37.76675,30.1103778 36.3431711,30.1103778 L32.9711974,30.1103778 C30.9480132,30.1103778 29.3013553,28.4638222 29.3013553,26.4415556 L29.3013553,22.0470889 C29.3013553,17.6158889 25.6953421,14.0108667 21.2621316,14.0108667 C16.8289211,14.0108667 13.2216184,17.6158889 13.2216184,22.0470889 L13.2216184,30.0904 C13.2216184,39.2105778 20.6451184,46.6307111 29.7700789,46.6307111 L32.9525,46.6307111 C41.49075,46.6307111 48.4371447,39.6874667 48.4371447,31.1537333 L48.4371447,25.0173333 C48.4371447,11.4156889 37.3663684,0.349288889 23.7579079,0.349288889 Z" id="Fill-16" fill="url(#linearGradient-3)" mask="url(#mask-2)"></path>
            </g>
        </g>
    </g>
</svg>